HIERARCHY
ROOT Hips
{
	OFFSET 0.00000 0.00000 0.00000
	CHANNELS 6 Xposition Yposition Zposition Zrotation Yrotation Xrotation 
	JOINT LHipJoint
	{
		OFFSET 0 0 0
		CHANNELS 3 Zrotation Yrotation Xrotation
		JOINT LeftHip
		{
			OFFSET 1.34019 -1.87553 0.90315
			CHANNELS 3 Zrotation Yrotation Xrotation
			JOINT LeftKnee
			{
				OFFSET 2.55316 -7.01474 0.00000
				CHANNELS 3 Zrotation Yrotation Xrotation
				JOINT LeftAnkle
				{
					OFFSET 2.64657 -7.27139 0.00000
					CHANNELS 3 Zrotation Yrotation Xrotation
					JOINT LeftToe
					{
						OFFSET 0.24207 -0.66507 2.14489
						CHANNELS 3 Zrotation Yrotation Xrotation
						End Site
						{
							OFFSET 0.00000 -0.00000 1.12451
						}
					}
				}
			}
		}
	}
	JOINT RHipJoint
	{
		OFFSET 0 0 0
		CHANNELS 3 Zrotation Yrotation Xrotation
		JOINT RightHip
		{
			OFFSET -1.28320 -1.87553 0.90315
			CHANNELS 3 Zrotation Yrotation Xrotation
			JOINT RightKnee
			{
				OFFSET -2.60484 -7.15674 0.00000
				CHANNELS 3 Zrotation Yrotation Xrotation
				JOINT RightAnkle
				{
					OFFSET -2.60296 -7.15159 0.00000
					CHANNELS 3 Zrotation Yrotation Xrotation
					JOINT RightToe
					{
						OFFSET -0.31082 -0.85398 2.28998
						CHANNELS 3 Zrotation Yrotation Xrotation
						End Site
						{
							OFFSET -0.00000 -0.00000 1.21611
						}
					}
				}
			}
		}
	}
	JOINT lowerback
	{
		OFFSET 0 0 0
		CHANNELS 3 Zrotation Yrotation Xrotation
		JOINT Chest
		{
			OFFSET -0.00160 2.05581 -0.15156
			CHANNELS 3 Zrotation Yrotation Xrotation
			JOINT Chest2
			{
				OFFSET 0.04594 2.06326 -0.01617
				CHANNELS 3 Zrotation Yrotation Xrotation
				JOINT lowerneck
				{
					OFFSET 0 0 0
					CHANNELS 3 Zrotation Yrotation Xrotation
					JOINT Neck
					{
						OFFSET 0.03753 1.73883 0.26751
						CHANNELS 3 Zrotation Yrotation Xrotation
						JOINT Head
						{
							OFFSET -0.09795 1.76129 -0.31794
							CHANNELS 3 Zrotation Yrotation Xrotation
							End Site
							{
								OFFSET -0.03611 1.79987 -0.13846
							}
						}
					}
				}
				JOINT LeftCollar
				{
					OFFSET 0 0 0
					CHANNELS 3 Zrotation Yrotation Xrotation
					JOINT LeftShoulder
					{
						OFFSET 3.30667 1.29205 -0.22445
CHANNELS 3 Zrotation Xrotation Yrotation
						JOINT LeftElbow
						{
OFFSET 0 -4.927850 -0.000000
CHANNELS 3 Zrotation Xrotation Yrotation
							JOINT LeftWrist
							{
OFFSET 0 -3.440520 0.000000
CHANNELS 3 Zrotation Xrotation Yrotation
								JOINT lhand
								{
									OFFSET 0 0 0
CHANNELS 3 Zrotation Xrotation Yrotation
									JOINT LFingers
									{
OFFSET 0 -0.654330 0.000000
CHANNELS 3 Zrotation Xrotation Yrotation
										End Site
										{
OFFSET 0 -0.527530 0.000000
										}
									}
								}
								JOINT LThumb
								{
OFFSET 0 0.000000 0.000000
CHANNELS 3 Zrotation Xrotation Yrotation
									End Site
									{
OFFSET 0 -0.535590 0.535590
									}
								}
							}
						}
					}
				}
				JOINT RightCollar
				{
					OFFSET 0 0 0
					CHANNELS 3 Zrotation Yrotation Xrotation
					JOINT RightShoulder
					{
						OFFSET -3.20032 1.49783 -0.27688
CHANNELS 3 Zrotation Xrotation Yrotation
						JOINT RightElbow
						{
OFFSET 0 -5.091810 -0.000000
CHANNELS 3 Zrotation Xrotation Yrotation
							JOINT RightWrist
							{
OFFSET 0 -3.498650 -0.000000
CHANNELS 3 Zrotation Xrotation Yrotation
								JOINT rhand
								{
									OFFSET 0 0 0
CHANNELS 3 Zrotation Xrotation Yrotation
									JOINT RFingers
									{
OFFSET 0 -0.666410 0.000000
CHANNELS 3 Zrotation Xrotation Yrotation
										End Site
										{
OFFSET 0 -0.537280 0.000000
										}
									}
								}
								JOINT RThumb
								{
OFFSET 0 0.000000 0.000000
CHANNELS 3 Zrotation Xrotation Yrotation
									End Site
									{
OFFSET 0 -0.545480 0.545480
									}
								}
							}
						}
					}
				}
			}
		}
	}
}
MOTION
Frames: 5
Frame Time: 0.008333333333333333
1.536767 17.828080 -7.214146 -8.261275 2.305827 6.914905 0.000000 0.000000 0.000000 -2.906661 -7.522761 -31.822152 3.269381 11.118874 32.681927 -0.340764 10.390030 -5.415120 0.194973 -2.843285 -7.842690 0.000000 0.000000 0.000000 21.376772 -1.366256 2.649163 -1.931172 -8.720956 24.926441 0.326740 -12.851816 -13.237182 -0.423897 4.178786 -11.580118 -2.949510 -0.703270 13.929646 1.071054 -1.314489 0.967950 3.060795 -0.537474 -6.700377 8.330172 2.227873 -18.181297 -7.303720 2.135978 13.340884 -3.522384 0.775638 7.240330 0.000000 0.000000 0.000000 45.956602 0.859132 25.692842 19.565265 -30.114957 5.311511 19.943019 -10.523270 1.995673 0.000000 0.000000 0.000000 -7.125000 0.000000 0.000000 -5.119798 27.845048 -2.143537 0.000000 0.000000 0.000000 -70.805150 8.530129 -35.301869 -16.912866 -26.742730 -4.048034 -21.079355 0.365062 4.197424 0.000000 0.000000 0.000000 7.125000 0.000000 0.000000 4.590012 34.449063 1.191770
1.594247 17.872213 -6.990864 -8.951759 2.823264 7.022542 0.000000 0.000000 0.000000 -2.430118 -7.615452 -31.286624 3.293752 11.156024 32.807951 -0.324384 10.260724 -6.057507 0.194281 -2.838312 -7.828901 0.000000 0.000000 0.000000 21.866399 -1.890932 2.241449 -2.083691 -9.038017 25.914493 0.384438 -12.549437 -11.238037 -0.416174 4.140851 -11.473360 -3.548357 -0.903259 13.755897 0.616571 -1.699576 0.880908 2.986632 -0.713617 -6.665081 8.258368 2.207630 -18.169272 -6.024454 1.916792 13.780599 -3.113148 0.789926 7.350165 0.000000 0.000000 0.000000 45.221034 0.254431 25.493166 19.474575 -30.004123 5.266087 20.058574 -10.503407 1.893023 0.000000 0.000000 0.000000 -7.125000 0.000000 0.000000 -5.034901 27.952757 -2.094893 0.000000 0.000000 0.000000 -70.652388 8.863138 -35.195980 -16.868423 -26.684070 -4.028102 -20.975620 0.267273 4.344124 0.000000 0.000000 0.000000 7.125000 0.000000 0.000000 4.687528 34.601197 1.199888
1.651848 17.916394 -6.771321 -9.707898 3.247247 7.104328 0.000000 0.000000 0.000000 -1.858925 -7.661611 -30.676103 3.303626 11.171036 32.858905 -0.307285 10.162933 -6.723023 0.206367 -2.925136 -8.070268 0.000000 0.000000 0.000000 22.433479 -2.283264 1.881960 -2.229380 -9.328320 26.827793 0.434938 -12.369136 -9.178078 -0.413462 4.127433 -11.435519 -4.016597 -1.031777 13.558519 0.204531 -1.962898 0.836795 2.857713 -0.835479 -6.581453 8.259229 2.169828 -18.082133 -4.846844 1.666399 14.018490 -2.751171 0.785803 7.385641 0.000000 0.000000 0.000000 44.392936 -0.439571 25.279620 19.396795 -29.908735 5.227201 20.269235 -10.258645 1.738688 0.000000 0.000000 0.000000 -7.125000 0.000000 0.000000 -4.878597 28.114642 -2.010609 0.000000 0.000000 0.000000 -70.568651 9.373113 -35.146566 -16.817612 -26.616658 -4.005219 -20.797325 0.242403 4.204348 0.000000 0.000000 0.000000 7.125000 0.000000 0.000000 4.822368 34.445069 1.253018
1.709974 17.960511 -6.555992 -10.307154 3.540618 7.147138 0.000000 0.000000 0.000000 -1.488099 -7.610934 -29.931274 3.286755 11.145462 32.771959 -0.292086 10.121552 -7.360201 0.219972 -3.019070 -8.331925 0.000000 0.000000 0.000000 22.804495 -2.561985 1.546317 -2.389277 -9.633452 27.797998 0.464625 -12.212317 -7.044667 -0.400261 4.061908 -11.250978 -4.584502 -1.085146 13.355564 -0.214129 -2.138041 0.821108 2.759854 -0.912827 -6.467763 8.246520 2.114132 -17.971872 -3.725811 1.403091 14.209881 -2.407458 0.770447 7.406122 0.000000 0.000000 0.000000 43.499389 -1.036471 24.944289 19.332142 -29.829331 5.195045 20.364171 -10.039590 1.841601 0.000000 0.000000 0.000000 -7.125000 0.000000 0.000000 -4.801187 28.004517 -1.991076 0.000000 0.000000 0.000000 -70.582566 9.908055 -35.317863 -16.768650 -26.551748 -3.983385 -20.686259 0.290611 4.032969 0.000000 0.000000 0.000000 7.125000 0.000000 0.000000 4.899138 34.258170 1.295304
1.765552 18.004538 -6.346632 -10.707998 3.782511 7.169056 0.000000 0.000000 0.000000 -1.347548 -7.539943 -29.084181 3.243256 11.078712 32.545983 -0.279941 10.136591 -7.949287 0.231287 -3.095445 -8.544442 0.000000 0.000000 0.000000 22.960234 -2.783051 1.182270 -2.571629 -9.966881 28.869514 0.473971 -12.102146 -4.904443 -0.344398 3.770828 -10.432731 -5.295610 -1.137830 13.227033 -0.661954 -2.337588 0.782948 2.718120 -0.996365 -6.412898 8.196700 2.068021 -17.809644 -2.622529 1.167935 14.321943 -2.060444 0.764427 7.397387 0.000000 0.000000 0.000000 42.602183 -1.383974 24.638867 19.292919 -29.781058 5.175514 20.225864 -9.913534 2.179611 0.000000 0.000000 0.000000 -7.125000 0.000000 0.000000 -4.895003 27.646896 -2.071745 0.000000 0.000000 0.000000 -70.688627 10.363457 -35.437640 -16.759609 -26.539725 -3.979305 -20.626347 0.229215 3.949011 0.000000 0.000000 0.000000 7.125000 0.000000 0.000000 4.941121 34.166585 1.317550
